<svg width="22" height="22" viewBox="0 0 22 22" fill="none" xmlns="http://www.w3.org/2000/svg">
<path d="M3.70711 2.29289C3.31658 1.90237 2.68342 1.90237 2.29289 2.29289C1.90237 2.68342 1.90237 3.31658 2.29289 3.70711L3.70711 2.29289ZM18.2929 19.7071C18.6834 20.0976 19.3166 20.0976 19.7071 19.7071C20.0976 19.3166 20.0976 18.6834 19.7071 18.2929L18.2929 19.7071ZM2.29289 3.70711L18.2929 19.7071L19.7071 18.2929L3.70711 2.29289L2.29289 3.70711Z" fill="#191E45"/>
<path d="M19.7071 3.70711C20.0976 3.31658 20.0976 2.68342 19.7071 2.29289C19.3166 1.90237 18.6834 1.90237 18.2929 2.29289L19.7071 3.70711ZM2.2929 18.2929C1.90237 18.6834 1.90237 19.3166 2.2929 19.7071C2.68342 20.0976 3.31658 20.0976 3.70711 19.7071L2.2929 18.2929ZM18.2929 2.29289L2.2929 18.2929L3.70711 19.7071L19.7071 3.70711L18.2929 2.29289Z" fill="#191E45"/>
</svg>
