<svg width="320" height="320" viewBox="0 0 320 320" fill="none" xmlns="http://www.w3.org/2000/svg">
<path fill-rule="evenodd" clip-rule="evenodd" d="M160 320C248.366 320 320 248.366 320 160C320 71.6344 248.366 0 160 0C71.6344 0 0 71.6344 0 160C0 248.366 71.6344 320 160 320ZM160 202.667C183.564 202.667 202.667 183.564 202.667 160C202.667 136.436 183.564 117.333 160 117.333C136.436 117.333 117.333 136.436 117.333 160C117.333 183.564 136.436 202.667 160 202.667Z" fill="#AC2D45"/>
<mask id="mask0_415_7402" style="mask-type:alpha" maskUnits="userSpaceOnUse" x="0" y="0" width="320" height="320">
<path fill-rule="evenodd" clip-rule="evenodd" d="M160 320C248.366 320 320 248.366 320 160C320 71.6344 248.366 0 160 0C71.6344 0 0 71.6344 0 160C0 248.366 71.6344 320 160 320ZM160 202.667C183.564 202.667 202.667 183.564 202.667 160C202.667 136.436 183.564 117.333 160 117.333C136.436 117.333 117.333 136.436 117.333 160C117.333 183.564 136.436 202.667 160 202.667Z" fill="#AC2D45"/>
</mask>
<g mask="url(#mask0_415_7402)">
<path d="M162.589 157.168C162.646 157.739 162.532 158.253 162.275 158.71C162.075 159.139 161.733 159.51 161.333 159.738C161.133 159.881 160.762 160.053 160.534 160.11C160.449 160.11 160.477 160.11 160.42 160.138C160.42 160.138 160.391 160.138 160.363 160.138C160.391 160.138 160.363 160.138 160.363 160.138H160.334C160.334 160.138 160.277 160.138 160.334 160.138H160.306C160.306 160.138 160.135 160.195 160.078 160.138C160.078 160.138 160.049 160.167 160.021 160.167C159.65 160.224 159.164 160.167 159.05 160.11C159.079 160.11 159.05 160.11 159.05 160.11C158.85 160.053 158.451 159.938 158.08 159.71C158.08 159.71 158.08 159.71 157.994 159.681H157.937V159.596C157.937 159.596 157.937 159.595 157.823 159.538C157.823 159.538 157.795 159.51 157.766 159.481C157.795 159.51 157.795 159.51 157.766 159.481C157.766 159.481 157.738 159.481 157.709 159.481V159.424H157.681C157.681 159.424 157.652 159.424 157.623 159.367H157.595V159.338C157.595 159.338 157.566 159.338 157.538 159.31H157.566C157.566 159.31 157.509 159.31 157.452 159.253C157.452 159.253 157.424 159.224 157.395 159.224C157.395 159.224 157.395 159.196 157.395 159.224C157.395 159.224 157.338 159.196 157.338 159.167C157.367 159.224 157.338 159.167 157.338 159.167H157.367C157.367 159.167 157.281 159.138 157.338 159.167C157.338 159.167 157.338 159.167 157.338 159.138C157.281 159.053 157.281 159.081 157.195 158.967C157.224 159.024 157.195 158.967 157.195 158.939C157.224 158.996 157.195 158.939 157.195 158.939V158.881C157.195 158.881 157.167 158.853 157.11 158.796C157.138 158.853 157.11 158.796 157.11 158.796C157.167 158.853 157.053 158.739 157.11 158.796C157.053 158.71 157.081 158.739 157.053 158.681C157.053 158.681 157.024 158.653 156.996 158.596C156.996 158.596 156.91 158.481 156.967 158.567C156.91 158.481 156.882 158.424 156.853 158.367C156.568 157.767 156.454 157.025 156.568 156.254C156.568 156.254 156.568 156.196 156.568 156.168C156.568 156.168 156.568 156.225 156.568 156.168C156.568 156.139 156.568 156.139 156.568 156.082C156.568 156.025 156.568 156.111 156.568 156.111V156.025C156.568 156.025 156.568 156.025 156.568 155.968C156.568 155.996 156.568 155.968 156.568 155.968C156.568 155.996 156.568 155.968 156.568 155.968V155.911V155.854V155.796C156.568 155.796 156.568 155.739 156.568 155.711V155.682C156.568 155.682 156.625 155.539 156.653 155.425C156.653 155.397 156.653 155.368 156.71 155.311C156.682 155.368 156.682 155.368 156.71 155.311C156.71 155.311 156.71 155.311 156.767 155.225V155.282V155.197C156.767 155.197 156.767 155.197 156.824 155.111C156.767 155.197 156.824 155.082 156.824 155.082C156.824 155.054 156.882 154.968 156.91 154.94V154.968C156.91 154.968 156.91 154.968 156.91 154.911C156.91 154.911 156.939 154.825 156.967 154.797C156.91 154.882 156.967 154.797 156.967 154.797C156.939 154.825 156.967 154.797 156.967 154.797C156.967 154.797 156.967 154.74 157.081 154.654C157.053 154.654 157.024 154.711 157.081 154.654L157.167 154.568L157.11 154.625C157.11 154.625 157.138 154.625 157.167 154.597C157.167 154.597 157.196 154.597 157.253 154.511C157.481 154.226 157.795 153.968 157.994 153.797C157.994 153.797 158.052 153.768 158.08 153.74V153.711C158.08 153.711 158.137 153.683 158.194 153.654H158.137C158.137 153.654 158.194 153.654 158.251 153.654H158.194C158.194 153.654 158.223 153.654 158.308 153.626H158.28C158.28 153.626 158.337 153.626 158.394 153.569H158.337C158.337 153.569 158.394 153.569 158.451 153.569H158.394C158.394 153.569 158.537 153.54 158.394 153.569C158.451 153.54 158.451 153.54 158.508 153.511C158.394 153.597 158.508 153.511 158.508 153.511C158.508 153.511 158.537 153.511 158.594 153.454H158.537C158.537 153.454 158.851 153.34 158.936 153.311C159.193 153.226 159.307 153.197 159.535 153.14C159.45 153.14 159.564 153.14 159.592 153.14H159.535C159.535 153.14 159.621 153.14 159.65 153.14C159.735 153.14 159.592 153.14 159.592 153.14C159.592 153.14 159.678 153.14 159.707 153.14C159.764 153.14 159.707 153.14 159.678 153.14C159.678 153.14 159.792 153.14 159.735 153.14C159.735 153.14 159.792 153.14 159.821 153.14H159.792C159.792 153.14 159.906 153.14 159.849 153.14H159.906C159.906 153.14 160.02 153.14 159.963 153.14C159.992 153.14 159.992 153.14 160.078 153.14C159.935 153.14 160.192 153.14 160.078 153.14C160.163 153.14 160.477 153.14 160.563 153.14C160.591 153.14 160.563 153.14 160.705 153.14H160.648C160.82 153.14 160.677 153.14 160.848 153.14H160.934C160.934 153.14 161.019 153.14 161.105 153.14H161.048C161.048 153.14 161.105 153.14 161.133 153.14C161.19 153.14 161.133 153.14 161.105 153.14C161.133 153.14 161.19 153.14 161.248 153.14C161.248 153.14 161.333 153.14 161.362 153.14C161.362 153.14 161.875 153.254 162.161 153.369C162.104 153.34 162.189 153.369 162.246 153.397C162.161 153.369 162.275 153.397 162.303 153.397H162.246C162.246 153.397 162.332 153.397 162.532 153.511L162.446 153.454C162.446 153.454 162.503 153.483 162.532 153.511H162.475H162.56C162.503 153.483 162.56 153.511 162.56 153.511C162.56 153.511 162.617 153.569 162.646 153.569C162.646 153.569 162.589 153.54 162.646 153.569C162.646 153.569 162.703 153.626 162.646 153.569H162.703C162.703 153.569 162.703 153.569 162.674 153.569C162.731 153.569 162.703 153.569 162.788 153.626C162.703 153.569 162.817 153.626 162.846 153.654C162.703 153.569 162.846 153.654 162.846 153.654H162.817C162.817 153.654 162.874 153.683 162.903 153.683C162.845 153.626 162.903 153.683 162.903 153.683C162.817 153.626 162.96 153.683 162.96 153.74L162.874 153.683C162.874 153.683 163.017 153.797 162.96 153.711C162.96 153.711 163.017 153.74 163.017 153.769C163.017 153.769 163.045 153.769 163.074 153.797C163.074 153.797 163.017 153.74 163.074 153.797C163.245 153.94 163.302 153.968 163.53 154.197C163.473 154.14 163.53 154.197 163.587 154.254L163.53 154.197C163.73 154.368 163.616 154.283 163.787 154.454C163.816 154.511 163.787 154.454 163.787 154.454C163.787 154.454 163.816 154.511 163.844 154.511L163.901 154.597L163.958 154.683H163.93V154.625C163.93 154.625 163.93 154.625 164.015 154.797V154.74C164.015 154.74 164.044 154.797 164.101 154.94L164.044 154.854C164.044 154.854 164.073 154.882 164.158 155.025C164.301 155.254 164.415 155.482 164.501 155.625C164.472 155.539 164.501 155.625 164.501 155.625C164.501 155.682 164.501 155.625 164.501 155.597C164.586 155.768 164.643 155.911 164.757 156.339C164.757 156.396 164.757 156.368 164.786 156.482C164.786 156.482 164.786 156.396 164.786 156.453V156.596C164.786 156.596 164.786 156.454 164.786 156.568C164.786 156.625 164.786 156.596 164.786 156.682C164.786 156.682 164.786 156.711 164.786 156.739C164.786 156.739 164.786 156.825 164.786 156.853C164.786 156.853 164.786 156.739 164.786 156.853C164.786 157.053 164.843 157.253 164.843 157.824V157.882C164.843 157.882 164.843 157.853 164.843 157.967V157.882C164.843 157.882 164.843 157.882 164.843 158.053V157.996C164.843 157.996 164.843 158.053 164.843 158.139C164.843 158.139 164.843 158.139 164.843 158.11V158.196C164.843 158.196 164.843 158.253 164.843 158.282C164.843 158.367 164.843 158.282 164.843 158.253C164.843 158.253 164.843 158.31 164.843 158.339C164.786 158.796 164.615 159.31 164.472 159.596V159.538V159.624C164.472 159.624 164.415 159.653 164.443 159.624C164.501 159.51 164.386 159.71 164.358 159.71H164.415V159.653C164.415 159.653 164.358 159.767 164.358 159.824V159.767C164.358 159.767 164.358 159.767 164.358 159.881V159.795C164.358 159.795 164.301 159.967 164.358 159.853L164.301 159.938V159.881C164.301 159.881 164.244 160.052 164.301 159.967C164.301 159.967 164.272 160.053 164.244 160.053V159.967C164.187 160.224 163.844 160.709 163.673 160.881C163.331 161.281 163.216 161.395 162.76 161.738C162.589 161.852 162.389 162.023 162.104 162.166C162.218 162.109 162.047 162.195 162.047 162.223H162.075C162.075 162.223 162.018 162.223 161.875 162.281L161.989 162.223L161.904 162.281L161.79 162.338C161.79 162.338 161.79 162.338 161.847 162.338L161.733 162.395C161.59 162.48 160.934 162.737 160.306 162.823H160.391C160.391 162.823 160.277 162.823 160.249 162.823H160.306C160.306 162.823 160.22 162.823 160.192 162.823H160.277H160.22C160.049 162.823 159.621 162.909 159.079 162.88C159.164 162.88 159.136 162.88 158.965 162.88H158.851H158.736C158.394 162.852 157.624 162.709 157.081 162.452L157.195 162.509L157.081 162.452H157.053C157.053 162.452 157.053 162.452 157.024 162.452C157.138 162.509 156.967 162.452 156.967 162.423H157.053C157.053 162.423 156.882 162.395 156.939 162.423C156.939 162.423 156.767 162.338 156.853 162.395C156.825 162.395 156.767 162.366 156.739 162.338H156.824C156.625 162.309 156.511 162.223 156.454 162.195C156.454 162.195 156.397 162.166 156.425 162.195H156.368L156.282 162.109L156.396 162.195C156.254 162.109 156.197 162.081 155.94 161.909C155.826 161.823 156.111 162.023 155.997 161.938C155.968 161.938 155.911 161.881 155.854 161.852L155.968 161.938H155.94C155.94 161.938 155.854 161.852 155.797 161.823L155.854 161.881C155.854 161.881 155.74 161.795 155.683 161.738L155.74 161.795L155.655 161.738L155.769 161.823C155.769 161.823 155.683 161.766 155.626 161.738L155.74 161.823C155.74 161.823 155.54 161.681 155.655 161.766C155.512 161.652 155.626 161.766 155.426 161.595C155.369 161.538 155.426 161.595 155.426 161.595L155.312 161.509L155.369 161.566C154 160.395 153.372 158.824 153.201 157.425C153.086 156.711 153.143 155.682 153.343 154.94C153.457 154.511 153.4 154.711 153.486 154.454C153.543 154.34 153.457 154.54 153.486 154.54C153.543 154.34 153.514 154.425 153.571 154.254V154.311C153.571 154.311 153.629 154.168 153.629 154.111C153.629 154.111 153.629 154.168 153.6 154.197C153.6 154.168 153.657 154.054 153.657 154.026C153.657 154.026 153.657 154.083 153.657 154.111C153.743 153.826 153.743 153.911 153.8 153.711L153.857 153.597C153.857 153.597 153.771 153.854 153.743 153.911C153.914 153.426 153.857 153.597 154 153.283C154.256 152.883 154.085 153.083 154.542 152.426C154.741 152.169 154.741 152.169 154.998 151.883C155.027 151.855 155.027 151.826 155.141 151.741L155.027 151.855C155.027 151.855 155.141 151.74 155.198 151.683L155.084 151.798C155.598 151.226 156.282 150.684 156.967 150.312C158.793 149.313 161.276 148.941 163.901 150.055C166.527 151.169 168.695 153.826 169.038 157.139V157.168C169.038 157.168 169.038 157.339 169.066 157.396V157.282C169.066 157.282 169.066 157.482 169.066 157.567C169.066 157.767 169.066 157.824 169.066 157.739C169.066 157.996 169.066 158.082 169.066 158.481V158.424C169.066 158.424 169.066 158.624 169.066 158.796V158.739C169.066 158.739 169.066 158.939 169.066 159.024V159.167C169.066 158.938 169.066 159.167 169.066 159.224V159.167C169.066 159.167 169.009 159.624 169.009 159.71C169.009 159.795 169.009 159.738 169.009 159.824V159.938C169.009 159.938 169.009 159.881 168.952 160.11V160.053C168.952 160.053 168.952 160.252 168.895 160.338C168.895 160.338 168.952 160.167 168.895 160.252C168.895 160.31 168.895 160.395 168.838 160.424V160.281C168.838 160.281 168.809 160.567 168.838 160.395V160.452L168.781 160.567C168.724 160.824 168.695 160.881 168.752 160.681C168.724 160.852 168.695 160.909 168.695 160.909C168.438 161.709 168.267 162.138 167.896 162.823C167.811 163.023 167.24 163.937 166.669 164.566C165.87 165.451 165.471 165.765 164.615 166.337C164.272 166.565 163.274 167.108 162.96 167.222C162.731 167.308 162.703 167.308 162.617 167.365C161.447 167.765 160.877 167.907 159.65 168.022C158.308 168.107 157.595 168.022 156.71 167.85C150.518 166.565 146.637 160.567 147.579 154.283V154.425C147.579 154.425 147.579 154.225 147.579 154.168C147.551 154.397 147.579 154.168 147.579 154.111V154.226C147.579 154.226 147.579 154.111 147.579 154.054V153.826C147.579 154.054 147.636 153.797 147.636 153.74C147.579 154.054 147.665 153.511 147.693 153.511C147.779 153.14 147.836 152.912 147.921 152.654C148.064 152.169 148.492 151.026 148.663 150.712C149.034 149.941 149.177 149.741 149.462 149.255L149.548 149.113L149.462 149.284C149.462 149.284 149.691 148.913 149.776 148.798L149.662 148.941C149.833 148.656 149.89 148.627 150.119 148.313L150.062 148.399C150.547 147.799 150.718 147.57 151.26 147.027C151.859 146.399 153.029 145.456 154.057 144.857L153.828 144.971C153.828 144.971 154.228 144.799 154.285 144.742L154.142 144.828H154.199L154.313 144.742C154.57 144.6 154.827 144.457 155.341 144.228L155.169 144.285C155.169 144.285 155.312 144.2 155.483 144.143L155.312 144.2L155.455 144.114C155.769 143.971 155.797 143.971 155.968 143.885L155.797 143.943L156.025 143.857L155.911 143.914C156.853 143.543 157.424 143.4 157.623 143.371C157.994 143.257 158.622 143.143 158.993 143.086H159.05C158.793 143.086 159.079 143.086 159.136 143.086H158.993C159.65 143 159.992 142.971 160.334 142.971H160.192C160.192 142.971 160.42 142.971 160.506 142.971H160.534C161.476 142.971 161.647 142.971 162.303 142.971H162.161C163.302 143.029 164.244 143.228 164.757 143.371H164.586C164.586 143.371 164.814 143.371 164.9 143.4H164.814L165.528 143.543L164.929 143.4L165.1 143.457C164.786 143.371 165.414 143.543 165.414 143.543C166.412 143.857 167.326 144.2 168.381 144.799C169.009 145.171 168.695 144.971 169.18 145.256C169.152 145.228 169.323 145.371 169.323 145.342L169.152 145.228L169.38 145.371L169.209 145.256C171.035 146.456 172.005 147.427 173.09 148.77C174.773 150.969 175.544 152.826 176.114 155.082C176.428 156.482 176.485 157.225 176.542 157.996C176.6 159.31 176.543 160.338 176.343 161.709C176.057 163.337 175.629 164.68 175.144 165.794C174.688 166.794 174.459 167.251 173.946 168.107C173.775 168.393 173.347 169.021 172.719 169.878C172.405 170.307 171.72 171.05 171.549 171.192C170.636 172.164 169.095 173.42 167.839 174.134C166.726 174.82 165.385 175.391 164.843 175.591C161.704 176.762 159.107 177.019 156.083 176.762C152.459 176.391 148.977 175.163 145.582 172.592C143.013 170.535 140.845 168.193 139.047 164.166C137.335 160.481 136.536 154.768 137.848 149.684C138.362 147.742 138.762 146.77 139.047 146.113C139.817 144.343 140.731 142.714 141.872 141.2C148.235 132.517 160.306 128.775 171.121 132.631C172.861 133.26 173.689 133.66 174.516 134.088C176.314 135.059 176.657 135.231 178.54 136.602C180.623 138.173 182.478 139.915 184.447 142.572C203.08 169.45 173.746 201.527 144.44 190.644C115.591 180.418 110.654 141.772 132.94 122.034C170.265 89.9286 222.627 126.319 213.81 172.535C207.931 206.754 171.463 227.863 138.476 219.236C116.162 213.866 97.8418 196.643 90.337 175.077C75.3273 133.831 101.409 87.7578 142.871 75.7039C183.762 62.5932 230.046 84.5872 248.423 122.863C267.884 160.738 258.724 209.325 228.762 239.117C188.527 280.791 120.356 282.334 75.841 246.572C42.3975 220.75 24.306 177.591 27.502 135.716C31.7252 63.7929 95.6446 6.15137 166.755 3.86627C253.759 -1.10381 329.549 70.534 336.854 156.196C341.163 198.042 330.092 241.002 306.778 276.021C240.633 375.28 103.064 390.876 10.4949 319.095C-60.2158 265.738 -92.4894 170.764 -73.4563 84.7586C-48.3736 -38.9507 72.0744 -125.356 196.46 -118.843C333.858 -113.959 448.628 -7.87334 473.739 125.948C497.452 244.43 449.484 369.367 356.658 445.546C213.981 564.771 1.13527 551.289 -133.951 426.894C-230.915 339.889 -280.11 205.554 -267.098 76.3895C-236.051 -225.329 69.7059 -404.709 353.177 -317.647C487.664 -277.429 602.833 -180.141 668.322 -56.2602C789.597 169.393 738.918 452.716 559.887 632.582C434.731 760.861 254.187 830.042 75.5557 823.358C-8.28138 820.616 -91.9472 801.936 -169.107 769.144C-452.578 650.748 -628.613 348.03 -609.494 43.627C-586.209 -427.931 -147.677 -774.98 314.083 -733.105C778.839 -697.315 1142.78 -312.505 1187.44 146.485L960.153 167.879C957.985 140.515 954.389 113.465 949.481 86.6724C908.362 -144.836 757.153 -354.779 546.048 -459.865C131.571 -673.664 -396.334 -423.646 -437.197 54.624C-447.584 185.246 -413.969 319.295 -340.976 428.265C-268.667 537.436 -156.922 620.47 -30.6246 655.461C138.248 703.905 328.75 661.774 457.017 540.264C586.596 420.525 641.185 229.119 585.055 60.5366C553.895 -35.6944 488.006 -120.243 401.088 -172.057C288.601 -240.467 142.842 -249.094 24.9338 -189.081C-88.523 -132.954 -167.966 -16.671 -173.216 110.609C-182.148 284.133 -51.0845 440.434 125.378 445.546C296.534 451.888 440.723 297.672 403.028 126.233C391.043 71.5908 359.397 21.1759 314.654 -12.4436C226.565 -81.2249 90.9648 -71.7989 19.2838 16.2629C-23.1483 66.5921 -37.7585 139.058 -15.3867 201.298C5.78655 263.596 64.2271 311.811 130.258 317.267C202.338 324.665 274.333 279.049 293.538 208.154C317.707 124.919 257.126 35.4006 168.267 37.2858C124.38 37.8857 81.8049 65.0783 64.8834 106.096C42.0551 157.882 66.7668 222.75 121.127 241.573C152.059 252.884 189.07 245.744 212.611 222.407C236.524 199.756 244.685 161.623 230.103 131.689C203.994 75.7039 121.669 75.7611 104.005 137.544C95.9584 167.593 114.963 200.927 146.181 206.44C184.675 214.124 217.976 173.392 196.688 138.458C185.075 119.035 156.396 113.322 139.361 128.861C121.498 143.857 124.608 174.791 147.265 183.36C162.988 189.987 183.077 178.99 184.161 161.481C185.503 143.657 168.239 131.089 152.801 138.43C141.187 144.285 138.99 158.139 145.639 166.565C146.694 167.965 148.549 169.678 150.176 170.621C151.859 171.592 152.744 171.935 153.885 172.278C154.798 172.563 155.227 172.649 156.225 172.82C156.539 172.878 156.368 172.82 157.11 172.935H156.967C157.823 172.992 158.565 173.02 159.05 172.992C160.078 172.992 161.904 172.706 162.817 172.421C164.957 171.792 167.126 170.792 169.352 168.65C171.634 166.394 172.747 163.794 173.204 161.995C174.088 158.567 173.66 154.797 171.72 151.569C170.265 149.17 168.381 147.713 166.755 146.856C166.327 146.628 166.127 146.513 165.1 146.142C164.444 145.913 164.244 145.856 164.073 145.828C162.674 145.485 161.79 145.428 160.506 145.456C159.764 145.514 158.622 145.571 156.939 146.199C156.967 146.199 157.053 146.171 157.11 146.142L156.939 146.199H157.024C157.024 146.199 156.825 146.256 156.796 146.256L156.967 146.199L156.568 146.371L156.739 146.313C156.739 146.313 156.539 146.399 156.425 146.456C155.54 146.856 154.856 147.256 154.028 147.884C153.543 148.256 152.944 148.77 152.287 149.57L152.344 149.484C151.974 149.941 151.916 149.998 151.517 150.569L151.603 150.427C151.232 151.026 151.346 150.826 151.003 151.426L151.06 151.341C150.918 151.569 150.889 151.655 150.747 151.94C150.861 151.683 150.746 151.94 150.718 151.998L150.775 151.883C150.375 152.797 150.261 153.14 150.005 154.14C149.947 154.454 149.833 154.94 149.805 155.482C149.805 155.34 149.805 155.597 149.805 155.625V155.682V155.768C149.805 155.368 149.805 156.082 149.805 156.139C149.805 155.996 149.805 156.396 149.805 156.425V156.282C149.805 156.796 149.833 157.539 149.976 158.253C149.947 158.082 149.976 158.31 149.976 158.31C150.033 158.681 150.176 159.138 150.261 159.396V159.453C150.176 159.11 150.376 159.738 150.376 159.738C150.318 159.481 150.433 159.881 150.433 159.91C150.318 159.595 150.49 160.052 150.518 160.081L150.461 159.967C150.547 160.11 150.575 160.224 150.575 160.252L150.518 160.11C150.604 160.31 150.632 160.367 150.604 160.31L150.661 160.452L150.604 160.367C151.374 162.166 152.687 163.452 153.029 163.737C152.887 163.594 153.029 163.737 153.086 163.794L153.029 163.737L153.086 163.794L153.143 163.851C153.143 163.851 153.229 163.937 153.286 163.966L153.201 163.909C153.657 164.251 153.343 164.023 153.686 164.28L153.629 164.223C153.629 164.251 153.743 164.309 153.771 164.337L153.629 164.251L153.743 164.337C153.743 164.337 153.828 164.423 153.885 164.451L153.8 164.394H153.857L154.114 164.651C154.114 164.651 153.971 164.508 153.914 164.48C154.884 165.108 154.713 165.023 155.797 165.537C156.539 165.851 157.167 165.994 157.994 166.137C158.993 166.222 159.507 166.308 160.877 166.051C160.734 166.079 160.962 166.051 160.991 166.051H160.877C160.877 166.051 160.991 166.051 161.019 166.051C161.247 165.994 161.932 165.822 162.36 165.651L162.218 165.708C162.218 165.708 162.532 165.594 162.332 165.651C162.36 165.651 162.446 165.594 162.503 165.594H162.446C162.589 165.565 162.589 165.565 162.788 165.48C162.931 165.423 163.274 165.251 163.473 165.137L163.388 165.194L163.53 165.108L163.445 165.165C163.445 165.165 163.73 164.994 163.53 165.108C163.587 165.08 163.673 165.023 163.73 164.994L163.644 165.051C163.901 164.908 164.272 164.651 164.558 164.423C164.957 164.109 164.757 164.28 165.043 164.023L164.986 164.08L165.1 163.994L165.043 164.051L165.214 163.909L165.157 163.966C165.785 163.337 165.927 163.166 166.27 162.68C166.355 162.538 166.213 162.766 166.213 162.766C166.698 162.023 166.612 162.195 167.04 161.309C167.24 160.881 167.497 160.11 167.525 159.853C167.696 159.11 167.754 158.453 167.725 157.625C167.725 157.339 167.611 156.568 167.525 156.225C167.525 156.225 167.525 156.168 167.525 156.139V156.254C167.154 154.74 166.527 153.797 165.842 152.997C165.442 152.54 164.871 152.026 164.13 151.626C163.73 151.369 162.903 151.026 162.56 150.941C162.56 150.941 162.475 150.941 162.446 150.912H162.56C161.419 150.626 160.391 150.627 159.678 150.741C158.851 150.884 158.679 150.969 158.194 151.141C157.766 151.312 157.424 151.483 157.024 151.741C155.911 152.455 155.141 153.511 154.77 154.368C154.713 154.454 154.741 154.454 154.713 154.483V154.425C154.713 154.425 154.684 154.568 154.656 154.625V154.511C154.513 155.025 154.656 154.625 154.485 155.14C154.57 154.825 154.456 155.311 154.428 155.368C154.485 155.197 154.428 155.425 154.428 155.454V155.339C154.428 155.625 154.399 155.625 154.342 155.882V155.768C154.256 156.511 154.342 155.996 154.256 156.682C154.256 156.511 154.256 156.739 154.256 156.768C154.256 156.939 154.256 156.882 154.256 157.053V157.139V157.053C154.256 157.225 154.256 157.253 154.256 157.253V157.425V157.339C154.313 157.767 154.256 157.653 154.342 157.967V158.082C154.342 158.082 154.342 158.11 154.37 158.139V158.024C154.428 158.31 154.37 158.167 154.428 158.396V158.282C154.428 158.282 154.485 158.51 154.428 158.31L154.485 158.481V158.51C154.485 158.51 154.542 158.624 154.542 158.681V158.567C154.542 158.567 154.542 158.681 154.542 158.739V158.653C154.542 158.653 154.542 158.796 154.57 158.853C154.57 158.853 154.542 158.767 154.57 158.853C154.513 158.739 154.627 159.024 154.627 159.024V158.967C154.684 159.138 154.656 159.081 154.741 159.281V159.338C154.741 159.338 154.856 159.481 154.798 159.424C154.97 159.767 155.055 159.853 155.169 160.053L155.084 159.938C155.084 159.938 155.169 160.053 155.198 160.11L155.112 159.995C155.112 159.995 155.17 160.081 155.112 160.053L155.198 160.167L155.255 160.224L155.169 160.11C155.169 160.11 155.227 160.195 155.255 160.224V160.167C155.255 160.167 155.312 160.252 155.312 160.281V160.224C155.312 160.224 155.398 160.367 155.426 160.395L155.341 160.281C155.341 160.281 155.426 160.367 155.426 160.424L155.341 160.31C155.341 160.31 155.54 160.538 155.569 160.595C155.968 161.052 156.197 161.224 156.282 161.281C156.339 161.338 156.282 161.281 156.282 161.281L156.339 161.338L156.225 161.252C156.225 161.252 156.339 161.338 156.396 161.366C156.482 161.452 156.311 161.309 156.311 161.309H156.339L156.396 161.366C156.396 161.366 156.454 161.395 156.454 161.424L156.339 161.338C156.339 161.338 156.454 161.424 156.511 161.452L156.396 161.366L156.511 161.424C156.511 161.424 156.511 161.424 156.539 161.424H156.482C156.482 161.424 156.568 161.424 156.596 161.452H156.539C156.539 161.452 156.682 161.509 156.568 161.452C156.568 161.452 156.739 161.566 156.653 161.509C156.71 161.509 156.739 161.566 156.824 161.624C156.824 161.624 156.767 161.566 156.739 161.566C156.853 161.652 156.825 161.624 156.882 161.652C157.31 161.881 157.367 161.909 157.681 162.023C158.08 162.166 158.537 162.252 158.708 162.281H158.622C158.622 162.281 158.708 162.281 158.736 162.281H158.822C158.822 162.281 158.679 162.281 158.765 162.281C158.765 162.281 158.822 162.281 158.851 162.281C158.936 162.281 158.793 162.281 158.793 162.281H158.936C158.936 162.281 159.05 162.28 159.05 162.309H159.107C159.107 162.309 159.05 162.309 159.222 162.309H159.136C159.307 162.309 159.478 162.309 159.764 162.309C160.648 162.252 161.447 161.995 162.189 161.538C162.389 161.424 162.617 161.252 162.788 161.081C162.846 161.024 162.788 161.081 162.788 161.081L162.874 160.995H162.817C162.817 160.995 162.817 160.995 162.817 161.024C162.903 160.938 162.846 160.967 162.96 160.909C162.817 161.052 162.903 160.938 162.96 160.909L162.874 160.995C162.874 160.995 163.045 160.824 162.874 160.995C162.903 160.967 162.931 160.909 162.988 160.881C162.845 161.024 162.931 160.909 162.988 160.881L162.903 160.967C162.903 160.967 162.988 160.881 163.017 160.824V160.881C163.274 160.538 163.017 160.881 163.473 160.31V160.367L163.559 160.252V160.31C163.559 160.31 163.616 160.167 163.559 160.281V160.224C163.559 160.224 163.673 160.053 163.616 160.224C163.616 160.224 163.702 160.053 163.644 160.138C163.702 160.024 163.702 160.024 163.644 160.11V160.024H163.702V160.081C163.702 160.081 163.759 159.91 163.702 159.995C163.702 159.995 163.759 159.881 163.702 159.967C163.73 159.91 163.73 159.853 163.702 159.967C163.702 159.967 163.759 159.824 163.702 159.91C163.702 159.91 163.702 159.853 163.702 159.881L163.759 159.795C163.759 159.795 163.759 159.853 163.759 159.824C163.759 159.824 163.816 159.653 163.759 159.767C163.759 159.767 163.787 159.681 163.816 159.681V159.767C163.816 159.767 163.816 159.653 163.816 159.624V159.653C163.816 159.653 163.873 159.51 163.816 159.596L163.873 159.51V159.567C163.873 159.567 163.93 159.396 163.873 159.538C163.873 159.453 163.958 159.367 163.873 159.538C163.873 159.51 163.901 159.453 163.93 159.424V159.51V159.396C163.901 159.424 163.901 159.481 163.93 159.396L163.987 159.31V159.367C163.987 159.367 163.987 159.281 163.987 159.253V159.338C163.987 159.338 163.987 159.224 163.987 159.196C163.987 159.196 163.987 159.224 163.987 159.253V159.196C163.987 159.196 163.987 159.196 163.987 159.167C163.987 159.081 164.015 159.053 164.044 158.996C164.044 158.967 164.044 159.053 164.044 159.053C164.044 158.939 164.044 158.938 164.101 158.824V158.881V158.796V158.853C164.101 158.853 164.101 158.681 164.101 158.767C164.101 158.767 164.101 158.653 164.101 158.71C164.101 158.71 164.101 158.596 164.101 158.653C164.101 158.567 164.101 158.739 164.101 158.653V158.567C164.101 158.567 164.101 158.653 164.101 158.567C164.13 158.31 164.158 158.196 164.158 158.082C164.158 158.025 164.158 157.882 164.158 157.824C164.158 157.824 164.158 157.71 164.158 157.824C164.158 157.767 164.158 157.567 164.158 157.625C164.158 157.539 164.158 157.51 164.158 157.625C164.101 157.282 164.158 157.453 164.13 157.282C164.13 157.196 164.13 157.339 164.13 157.339C164.13 157.31 164.13 157.253 164.13 157.196V157.253C164.13 157.253 164.13 157.168 164.13 157.139V157.11C164.13 157.11 164.13 157.025 164.13 156.996C164.13 156.996 164.13 157.082 164.13 157.053C164.13 156.968 164.13 156.996 164.13 156.939V156.853C164.13 156.853 164.13 156.939 164.13 156.911C164.072 156.682 164.044 156.625 163.987 156.453C163.987 156.482 163.987 156.453 163.987 156.453V156.511V156.396V156.453C163.987 156.453 163.987 156.339 163.987 156.396C163.987 156.396 163.958 156.311 163.958 156.282C163.901 156.168 163.93 156.196 163.844 156.025V156.082C163.844 156.082 163.844 155.996 163.844 155.968V156.025C163.844 156.025 163.844 155.939 163.844 155.911V155.968C163.844 155.968 163.844 155.911 163.844 155.882C163.844 155.825 163.844 155.882 163.844 155.911V155.854C163.844 155.854 163.787 155.797 163.787 155.768L163.702 155.625C163.702 155.625 163.702 155.625 163.644 155.568C163.644 155.625 163.644 155.568 163.644 155.568C163.644 155.568 163.587 155.539 163.616 155.568L163.559 155.482C163.559 155.482 163.616 155.568 163.559 155.482C163.644 155.597 163.502 155.397 163.502 155.397V155.339C163.502 155.339 163.473 155.339 163.445 155.339C163.359 155.225 163.074 154.882 162.874 154.711C162.617 154.483 162.731 154.597 162.503 154.425C162.56 154.454 162.475 154.425 162.475 154.397C162.56 154.454 162.475 154.397 162.475 154.397L162.56 154.454C162.56 154.454 162.417 154.368 162.475 154.425L162.417 154.368L162.503 154.425C162.503 154.425 162.417 154.368 162.36 154.311C162.446 154.368 162.36 154.311 162.36 154.311C162.417 154.368 162.36 154.311 162.36 154.311C162.36 154.311 162.303 154.283 162.246 154.254C162.161 154.197 162.046 154.14 161.818 154.026H161.875C161.875 154.026 161.875 154.083 161.704 153.968L161.79 154.026H161.676V153.968C161.504 153.911 161.447 153.883 161.362 153.883H161.419C161.419 153.883 161.305 153.883 161.362 153.883C161.362 153.883 161.219 153.854 161.276 153.883H161.219C161.219 153.883 161.133 153.883 161.219 153.883C161.219 153.883 161.105 153.883 161.076 153.854C161.162 153.854 161.133 153.854 161.076 153.854H161.048C160.762 153.797 160.962 153.854 160.62 153.797H160.677C160.192 153.797 159.935 153.797 159.849 153.797C159.621 153.826 159.592 153.826 159.164 153.94C159.164 153.94 159.25 153.94 159.164 153.94C158.965 153.997 158.908 154.026 158.793 154.054H158.851C158.851 154.054 158.793 154.054 158.765 154.054C158.736 154.054 158.765 154.054 158.765 154.054H158.708V154.083C158.651 154.111 158.679 154.083 158.622 154.111C158.622 154.111 158.651 154.111 158.679 154.111H158.622H158.651H158.594C158.594 154.111 158.594 154.14 158.594 154.111C158.565 154.111 158.48 154.197 158.594 154.111H158.537C158.537 154.111 158.48 154.168 158.48 154.197C158.48 154.197 158.451 154.197 158.422 154.197H158.48C158.48 154.197 158.394 154.197 158.365 154.197L158.308 154.226L158.251 154.254C158.251 154.254 158.251 154.254 158.251 154.283L158.194 154.311H158.223H158.166V154.368C158.223 154.368 158.166 154.368 158.166 154.368C158.251 154.311 158.166 154.368 158.166 154.368H158.194C158.194 154.368 158.137 154.368 158.08 154.425C158.137 154.397 158.109 154.425 158.023 154.454H158.08C158.08 154.454 158.052 154.454 157.994 154.454L157.909 154.54C157.909 154.54 157.909 154.54 157.823 154.597H157.852C157.538 154.883 157.424 154.997 157.31 155.168C157.31 155.168 157.281 155.225 157.253 155.225C157.31 155.14 157.253 155.225 157.253 155.225L157.167 155.311H157.224C157.224 155.311 157.167 155.425 157.224 155.368V155.425C157.224 155.425 157.167 155.425 157.138 155.511C157.081 155.597 157.053 155.682 157.024 155.739V155.825C156.996 155.911 157.024 155.882 156.967 155.939C156.967 155.939 156.967 155.939 156.967 155.968V156.025H156.939V156.111V156.054V156.139V156.082C156.939 156.082 156.939 156.196 156.939 156.139C156.939 156.139 156.939 156.168 156.939 156.196V156.168C156.91 156.368 156.939 156.282 156.882 156.396V156.339C156.882 156.339 156.882 156.453 156.882 156.396V156.453V156.425C156.882 156.425 156.882 156.482 156.882 156.511C156.882 156.511 156.882 156.453 156.882 156.511C156.882 156.511 156.882 156.568 156.882 156.596V156.568C156.882 156.568 156.882 156.653 156.882 156.625V156.682C156.882 156.682 156.882 156.768 156.882 156.682C156.882 156.853 156.882 156.796 156.882 156.911C156.882 156.911 156.882 156.91 156.882 156.968C156.882 156.91 156.882 156.939 156.882 157.025C156.91 156.882 156.882 157.139 156.882 157.025C156.882 157.168 156.882 157.396 156.882 157.539C156.882 157.596 156.882 157.567 156.882 157.625C156.882 157.625 156.882 157.682 156.882 157.625V157.682C156.882 157.682 156.882 157.71 156.882 157.767V157.71C156.882 157.71 156.882 157.796 156.882 157.853C156.882 157.91 156.882 157.853 156.882 157.853C156.882 157.853 156.882 157.91 156.882 157.939V157.882C156.882 157.882 156.882 157.967 156.882 157.996C156.882 157.996 156.882 157.996 156.882 158.053C156.882 158.024 156.882 158.053 156.882 158.053C156.882 158.053 156.882 158.053 156.91 158.167C156.91 158.082 156.91 158.167 156.91 158.167C156.91 158.11 156.91 158.167 156.91 158.196C156.91 158.167 156.91 158.196 156.91 158.196C156.91 158.196 156.91 158.196 156.91 158.282C156.91 158.282 157.024 158.539 157.053 158.624C157.138 158.824 157.224 158.91 157.338 159.11C157.338 159.11 157.338 159.138 157.367 159.167C157.367 159.196 157.367 159.167 157.367 159.167V159.224C157.367 159.224 157.452 159.281 157.395 159.224C157.395 159.253 157.424 159.253 157.452 159.31C157.452 159.31 157.538 159.367 157.481 159.31C157.509 159.338 157.509 159.338 157.538 159.367C157.509 159.31 157.538 159.367 157.538 159.367H157.509C157.509 159.367 157.566 159.396 157.538 159.367C157.566 159.396 157.538 159.367 157.595 159.424H157.566C157.566 159.424 157.595 159.424 157.652 159.481C157.652 159.481 157.738 159.595 157.709 159.538C157.652 159.51 157.709 159.538 157.738 159.567C157.738 159.567 157.766 159.567 157.738 159.567C157.738 159.567 157.766 159.595 157.795 159.624C157.795 159.624 157.823 159.624 157.852 159.624C157.852 159.624 157.88 159.624 157.852 159.624C157.852 159.624 157.909 159.681 157.852 159.624C157.852 159.624 157.937 159.681 157.88 159.624H157.937C157.937 159.624 157.994 159.71 158.023 159.738H158.052C158.28 159.91 158.708 160.11 158.851 160.138C159.05 160.195 159.221 160.252 159.421 160.252C159.45 160.252 159.421 160.252 159.478 160.252C159.478 160.252 159.849 160.252 159.992 160.252C159.992 160.252 159.992 160.252 160.021 160.252C160.049 160.252 160.021 160.252 160.021 160.252C160.078 160.252 160.249 160.224 160.277 160.224H160.306C160.306 160.224 160.391 160.224 160.306 160.224C160.563 160.167 160.563 160.167 160.934 160.024C160.877 160.024 160.934 160.024 160.991 159.995C160.934 159.995 161.162 159.91 161.133 159.91C161.19 159.881 161.305 159.824 161.333 159.795C161.504 159.681 161.476 159.71 161.647 159.538C162.161 159.081 162.646 158.282 162.56 157.282L162.589 157.168Z" fill="#DD5000"/>
</g>
</svg>
