<svg width="87" height="85" viewBox="0 0 87 85" fill="none" xmlns="http://www.w3.org/2000/svg">
<path d="M43.5 55.8641C20.1037 55.8641 1.13721 52.5367 1.13721 48.4321C1.13721 46.1076 7.21965 44.0324 16.7446 42.6696C24.0392 41.6259 33.353 41 43.5 41C54.7125 41 64.9075 41.7642 72.4851 43.0119C80.7193 44.3678 85.8629 46.2945 85.8629 48.4321C85.8629 49.7465 83.918 50.9812 80.5056 52.0524C79.8539 52.257 79.1487 52.4556 78.3933 52.6477" stroke="white" stroke-width="2" stroke-linecap="round"/>
<rect x="25" y="12" width="38" height="72" rx="7" fill="#E8B256" stroke="#191E45" stroke-width="2"/>
<rect x="56" y="9" width="8" height="21" fill="#191E45"/>
<path d="M45.4883 35.2578H74.4922C75.4297 35.2578 76.2435 35.0495 76.9336 34.6328C77.6367 34.2161 78.1706 33.6562 78.5352 32.9531C78.9128 32.263 79.1016 31.4948 79.1016 30.6484C79.1016 30.2578 79.0495 29.8737 78.9453 29.4961C78.8542 29.1185 78.7044 28.7474 78.4961 28.3828L63.9648 2.44531C63.5352 1.66406 62.9622 1.07812 62.2461 0.6875C61.5299 0.296875 60.7812 0.101562 60 0.101562C59.2188 0.101562 58.4635 0.296875 57.7344 0.6875C57.0182 1.07812 56.4453 1.66406 56.0156 2.44531L41.5039 28.4023C41.0872 29.1445 40.8789 29.8932 40.8789 30.6484C40.8789 31.4948 41.0677 32.263 41.4453 32.9531C41.8229 33.6562 42.3568 34.2161 43.0469 34.6328C43.737 35.0495 44.5508 35.2578 45.4883 35.2578ZM60 22.7383C58.9453 22.7383 58.4049 22.1979 58.3789 21.1172L58.125 11.4688C58.112 10.9479 58.2747 10.5182 58.6133 10.1797C58.9648 9.82812 59.4206 9.65234 59.9805 9.65234C60.5404 9.65234 60.9961 9.82812 61.3477 10.1797C61.6992 10.5312 61.875 10.9674 61.875 11.4883L61.6016 21.1172C61.5755 22.1979 61.0417 22.7383 60 22.7383ZM60 29.0273C59.4141 29.0273 58.9062 28.832 58.4766 28.4414C58.0469 28.0508 57.832 27.569 57.832 26.9961C57.832 26.4102 58.0469 25.9219 58.4766 25.5312C58.9062 25.1276 59.4141 24.9258 60 24.9258C60.599 24.9258 61.1133 25.1211 61.543 25.5117C61.9727 25.9023 62.1875 26.3971 62.1875 26.9961C62.1875 27.582 61.9661 28.0703 61.5234 28.4609C61.0938 28.8385 60.5859 29.0273 60 29.0273Z" fill="white"/>
<path d="M85.8629 48.4321C85.8629 49.7159 84.0076 50.9237 80.7417 51.9774M1.13721 48.4321C1.13721 52.5368 20.1037 55.8642 43.5 55.8642C52.8183 55.8642 61.4339 55.3364 68.4284 54.4419" stroke="white" stroke-width="2"/>
<path d="M60.2115 49.4397L68.9525 54.3356L61.8049 61.3561" stroke="white" stroke-width="2" stroke-linecap="round" stroke-linejoin="round"/>
<circle cx="44" cy="75" r="3" stroke="#191E45" stroke-width="2"/>
</svg>
