<svg width="87" height="85" viewBox="0 0 87 85" fill="none" xmlns="http://www.w3.org/2000/svg">
<path d="M43.5 55.8641C20.1037 55.8641 1.13721 52.5367 1.13721 48.4321C1.13721 46.1076 7.21965 44.0324 16.7446 42.6696C24.0392 41.6259 33.353 41 43.5 41C54.7125 41 64.9075 41.7642 72.4851 43.0119C80.7193 44.3678 85.8629 46.2945 85.8629 48.4321C85.8629 49.7465 83.918 50.9812 80.5056 52.0524C79.8539 52.257 79.1487 52.4556 78.3933 52.6477" stroke="white" stroke-width="2" stroke-linecap="round"/>
<rect x="25" y="12" width="38" height="72" rx="7" fill="#E8B256" stroke="#191E45" stroke-width="2"/>
<path d="M85.8629 48.4321C85.8629 49.7159 84.0076 50.9237 80.7417 51.9774M1.13721 48.4321C1.13721 52.5368 20.1037 55.8642 43.5 55.8642C52.8183 55.8642 61.4339 55.3364 68.4284 54.4419" stroke="white" stroke-width="2"/>
<path d="M60.2115 49.4397L68.9525 54.3356L61.8049 61.3561" stroke="white" stroke-width="2" stroke-linecap="round" stroke-linejoin="round"/>
<circle cx="44" cy="75" r="3" stroke="#191E45" stroke-width="2"/>
</svg>
