<svg width="72" height="72" viewBox="0 0 72 72" fill="none" xmlns="http://www.w3.org/2000/svg">
<path d="M61 36C61 35.4477 60.5523 35 60 35C59.4477 35 59 35.4477 59 36H61ZM36.7782 12.628C37.125 12.1982 37.0578 11.5687 36.628 11.2218L29.6243 5.56958C29.1945 5.22273 28.5649 5.28996 28.2181 5.71975C27.8712 6.14953 27.9385 6.77912 28.3682 7.12596L34.5938 12.1502L29.5696 18.3757C29.2227 18.8055 29.29 19.4351 29.7197 19.7819C30.1495 20.1288 30.7791 20.0615 31.126 19.6318L36.7782 12.628ZM59 36C59 40.549 57.6511 44.9958 55.1238 48.7781L56.7867 49.8893C59.5338 45.778 61 40.9445 61 36H59ZM55.1238 48.7781C52.5965 52.5604 49.0044 55.5084 44.8017 57.2492L45.5671 59.097C50.1352 57.2048 54.0397 54.0005 56.7867 49.8893L55.1238 48.7781ZM44.8017 57.2492C40.599 58.99 35.9745 59.4455 31.5129 58.5581L31.1227 60.5196C35.9723 61.4843 40.9989 60.9892 45.5671 59.097L44.8017 57.2492ZM31.5129 58.5581C27.0514 57.6706 22.9532 55.4801 19.7365 52.2635L18.3223 53.6777C21.8186 57.174 26.2732 59.555 31.1227 60.5196L31.5129 58.5581ZM19.7365 52.2635C16.5199 49.0468 14.3294 44.9486 13.4419 40.4871L11.4804 40.8773C12.445 45.7268 14.826 50.1814 18.3223 53.6777L19.7365 52.2635ZM13.4419 40.4871C12.5545 36.0255 13.01 31.401 14.7508 27.1983L12.903 26.4329C11.0108 31.0011 10.5157 36.0277 11.4804 40.8773L13.4419 40.4871ZM14.7508 27.1983C16.4916 22.9956 19.4396 19.4035 23.2219 16.8762L22.1107 15.2133C17.9995 17.9603 14.7952 21.8648 12.903 26.4329L14.7508 27.1983ZM23.2219 16.8762C26.958 14.3798 31.4583 13.4907 36.1062 12.9943L35.8938 11.0057C31.1773 11.5093 26.2682 12.4353 22.1107 15.2133L23.2219 16.8762Z" fill="#FFFDDE"/>
</svg>
