<svg width="131" height="120" viewBox="0 0 131 120" fill="none" xmlns="http://www.w3.org/2000/svg">
<path fill-rule="evenodd" clip-rule="evenodd" d="M17.56 0.559998C20.552 0.559998 22.68 2.368 22.984 5.52H20.056C19.832 3.744 18.888 2.848 17.608 2.848C16.088 2.848 15.144 4 15.144 6.4C15.144 8.8 16.088 9.952 17.592 9.952C18.92 9.952 19.864 9.024 20.056 7.152H22.984C22.696 10.384 20.584 12.24 17.56 12.24C14.248 12.24 12.104 10.128 12.104 6.4C12.104 2.672 14.248 0.559998 17.56 0.559998ZM11.4161 8.752C11.4161 10.8 9.59209 12.208 6.58409 12.208C3.43209 12.208 1.56009 10.784 1.25609 8.176H4.16809C4.34409 9.504 5.09609 10.112 6.50409 10.112C7.84809 10.112 8.45609 9.632 8.45609 9.04C8.45609 8.16 7.33609 7.84 5.99209 7.504L5.77565 7.45221C3.75148 6.96898 1.33609 6.39236 1.33609 3.952C1.33609 1.952 3.09609 0.591997 5.97609 0.591997C9.00009 0.591997 10.9361 1.984 11.2401 4.512H8.44009C8.23209 3.344 7.38409 2.688 6.07209 2.688C4.82409 2.688 4.31209 3.12 4.31209 3.696C4.31209 4.56 5.49609 4.88 6.90409 5.232L6.97548 5.24942C8.99369 5.74171 11.4161 6.3326 11.4161 8.752ZM22.4585 12H25.4505L26.2025 9.728H30.3145L31.0825 12H34.2505L30.1065 0.799997H26.6185L22.4585 12ZM28.2665 3.456L29.6585 7.728H26.8585L28.2665 3.456ZM37.3318 12H34.7878V0.799997H38.0518L40.1638 4.4L42.2438 8.016L42.2118 4.4L42.1958 0.799997H44.7398V12H41.4598L39.3638 8.432L37.2998 4.848L37.3318 8.432V12ZM50.9672 12H54.1512L55.0152 8.24L55.8312 4.448L56.6632 8.24L57.5272 12H60.7112L63.0312 0.799997H60.3112L59.6552 4.704L59.0152 8.64L58.1032 4.704L57.2072 0.799997H54.5672L53.6712 4.704L52.7752 8.56L52.1352 4.704L51.4792 0.799997H48.6472L50.9672 12ZM66.7751 12H63.8151V0.799997H66.7751V12ZM71.417 12H74.393V3.008H78.217V0.799997H67.593V3.008H71.417V12ZM81.9857 12H79.0097V0.799997H81.9857V5.136H86.1457V0.799997H89.1217V12H86.1457V7.344H81.9857V12ZM5.30409 31H8.28009V27.096L12.7441 19.8H9.54409L6.87209 24.344L4.20009 19.8H0.840088L5.30409 27.096V31ZM22.9751 25.4C22.9751 29.128 20.7511 31.24 17.3911 31.24C14.0311 31.24 11.8071 29.128 11.8071 25.4C11.8071 21.672 14.0311 19.56 17.3911 19.56C20.7511 19.56 22.9751 21.672 22.9751 25.4ZM14.8471 25.4C14.8471 27.8 15.8391 28.952 17.3911 28.952C18.9271 28.952 19.9351 27.8 19.9351 25.4C19.9351 23 18.9271 21.848 17.3911 21.848C15.8391 21.848 14.8471 23 14.8471 25.4ZM28.9003 31.224C31.9883 31.224 33.9563 29.608 33.9563 26.792V19.8H31.0603V26.952C31.0603 28.2 30.1803 28.904 28.9483 28.904C27.7483 28.904 26.8683 28.2 26.8683 26.936V19.8H23.8923V26.76C23.8923 29.592 25.8443 31.224 28.9003 31.224ZM37.967 31H34.991V19.8H41.087C43.583 19.8 45.023 21 45.023 22.92C45.023 24.12 44.463 25.096 43.375 25.592C44.399 25.944 44.719 26.728 44.751 27.832C44.783 29.048 44.831 30.136 45.231 31H42.191C41.855 30.392 41.839 29.56 41.807 27.816C41.791 27.016 41.471 26.664 40.719 26.664H37.967V31ZM42.111 23.272C42.111 22.408 41.583 21.96 40.703 21.96H37.967V24.584H40.703C41.567 24.584 42.111 24.12 42.111 23.272ZM49.484 31H52.956V27.08H57.132C59.852 27.08 61.548 25.672 61.548 23.448C61.548 21.176 59.836 19.8 57.1 19.8H49.484V31ZM56.524 22.168C57.516 22.168 58.108 22.632 58.108 23.496C58.108 24.36 57.516 24.824 56.524 24.824H52.956V22.168H56.524ZM65.8972 31H62.4252V19.8H65.8972V24.072H71.1772V19.8H74.6652V31H71.1772V26.472H65.8972V31ZM82.3952 31.272C86.3952 31.272 89.1792 29.048 89.1792 25.4C89.1792 21.752 86.3952 19.528 82.3952 19.528C78.3792 19.528 75.6112 21.752 75.6112 25.4C75.6112 29.048 78.3792 31.272 82.3952 31.272ZM82.3952 28.776C80.4912 28.776 79.1952 27.592 79.1952 25.4C79.1952 23.208 80.4912 22.04 82.3952 22.04C84.2832 22.04 85.5792 23.208 85.5792 25.4C85.5792 27.592 84.2832 28.776 82.3952 28.776ZM93.1122 31H90.1202V19.8H93.8962L96.5202 23.336L99.1122 26.872L99.0802 19.8H102.072V31H98.2802L95.6562 27.48L93.0962 23.976L93.1122 27.496V31ZM103.249 31H114.097V28.68H106.721V26.44H112.273V24.168H106.721V22.168H114.097V19.8H103.249V31ZM7.97609 50H5.00009V41.008H1.17609V38.8H11.8001V41.008H7.97609V50ZM17.4223 50.24C20.7823 50.24 23.0063 48.128 23.0063 44.4C23.0063 40.672 20.7823 38.56 17.4223 38.56C14.0623 38.56 11.8383 40.672 11.8383 44.4C11.8383 48.128 14.0623 50.24 17.4223 50.24ZM17.4223 47.952C15.8703 47.952 14.8783 46.8 14.8783 44.4C14.8783 42 15.8703 40.848 17.4223 40.848C18.9583 40.848 19.9663 42 19.9663 44.4C19.9663 46.8 18.9583 47.952 17.4223 47.952ZM37.3023 46.752C37.3023 48.8 35.4783 50.208 32.4703 50.208C29.3183 50.208 27.4463 48.784 27.1423 46.176H30.0543C30.2303 47.504 30.9823 48.112 32.3903 48.112C33.7343 48.112 34.3423 47.632 34.3423 47.04C34.3423 46.16 33.2223 45.84 31.8783 45.504L31.6619 45.4522C29.6377 44.969 27.2223 44.3924 27.2223 41.952C27.2223 39.952 28.9823 38.592 31.8623 38.592C34.8863 38.592 36.8223 39.984 37.1263 42.512H34.3263C34.1183 41.344 33.2703 40.688 31.9583 40.688C30.7103 40.688 30.1983 41.12 30.1983 41.696C30.1983 42.56 31.3823 42.88 32.7903 43.232L32.8617 43.2494C34.8799 43.7417 37.3023 44.3326 37.3023 46.752ZM41.2338 50H44.2098V41.008H48.0338V38.8H37.4098V41.008H41.2338V50ZM49.0242 50H46.0322L50.1922 38.8H53.6802L57.8242 50H54.6562L53.8882 47.728H49.7762L49.0242 50ZM53.2322 45.728L51.8402 41.456L50.4322 45.728H53.2322ZM58.3616 50H61.3376V45.664H64.0896C64.8416 45.664 65.1616 46.016 65.1776 46.816C65.2096 48.56 65.2256 49.392 65.5616 50H68.6016C68.2016 49.136 68.1536 48.048 68.1216 46.832C68.0896 45.728 67.7696 44.944 66.7456 44.592C67.8336 44.096 68.3936 43.12 68.3936 41.92C68.3936 40 66.9536 38.8 64.4576 38.8H58.3616V50ZM64.0736 40.96C64.9536 40.96 65.4816 41.408 65.4816 42.272C65.4816 43.12 64.9376 43.584 64.0736 43.584H61.3376V40.96H64.0736ZM75.7055 50H72.7295V41.008H68.9055V38.8H79.5295V41.008H75.7055V50ZM103.228 43.9213C102.356 43.2431 101.099 43.4002 100.421 44.2721C99.7431 45.144 99.9002 46.4005 100.772 47.0787C111.658 55.5452 119.01 67.5246 122.873 78.8949C124.802 84.5738 125.844 90.0508 126.036 94.8013C126.229 99.5877 125.555 103.473 124.219 106.09C122.871 108.73 121.262 110.275 119.588 111.092C117.914 111.908 115.977 112.092 113.799 111.656C109.354 110.766 104.204 107.338 99.4533 102.313C98.7353 101.554 98.0314 100.763 97.3454 99.9461C99.1137 95.7065 99.8981 91.1964 99.9995 86.8641C100.195 78.5199 97.8692 70.5251 94.813 65.8658C94.0403 64.6877 93.1789 63.658 92.2399 62.8862C91.3098 62.1218 90.1903 61.5199 88.9298 61.4199C86.0958 61.1949 84.2151 63.4424 83.1311 66.288C80.8794 72.1986 81.8647 79.3509 84.4775 86.133C86.4064 91.1397 89.2832 96.1109 92.6664 100.508C91.2706 103.168 89.3882 105.629 86.9288 107.748C80.532 113.26 69.8725 116.771 52.704 115.01C36.7495 113.374 23.1571 107.056 9.21117 98.8061L21.9697 95.744C23.0438 95.4863 23.7055 94.4066 23.4477 93.3325C23.1899 92.2584 22.1103 91.5967 21.0362 91.8545L3.53322 96.0552C2.45915 96.313 1.79742 97.3926 2.0552 98.4667L6.25591 115.97C6.51369 117.044 7.59336 117.705 8.66743 117.448C9.7415 117.19 10.4032 116.11 10.1455 115.036L7.06031 102.181C21.2381 110.58 35.4589 117.263 52.2959 118.99C70.1275 120.818 82.0305 117.249 89.5399 110.778C91.9639 108.69 93.8927 106.331 95.3999 103.811C95.7781 104.236 96.1605 104.653 96.5467 105.061C101.546 110.35 107.396 114.453 113.013 115.578C115.867 116.15 118.727 115.963 121.342 114.687C123.956 113.412 126.129 111.145 127.781 107.91C129.55 104.446 130.241 99.7904 130.033 94.6396C129.823 89.4531 128.695 83.5964 126.66 77.6082C122.595 65.6441 114.842 52.9547 103.228 43.9213ZM96.0006 86.7705C95.9263 89.9428 95.4524 93.1492 94.4642 96.2093C91.8999 92.5857 89.7286 88.6367 88.2101 84.695C85.7605 78.3365 85.1207 72.3013 86.869 67.712C87.775 65.3339 88.5589 65.4025 88.6118 65.4072L88.6133 65.4073C88.7884 65.4212 89.1542 65.5278 89.7002 65.9765C90.2372 66.4179 90.8426 67.1057 91.4683 68.0596C94.0059 71.9284 96.1803 79.0923 96.0006 86.7705Z" fill="#FFFDDE"/>
</svg>
