<svg width="23" height="22" viewBox="0 0 23 22" fill="none" xmlns="http://www.w3.org/2000/svg">
<path d="M15.5 5L11.5 1.5L7.5 5" stroke="#FFFDDE" stroke-width="2"/>
<path d="M11.5 1.5V14" stroke="#FFFDDE" stroke-width="2"/>
<path fill-rule="evenodd" clip-rule="evenodd" d="M6.5 7C4.29086 7 2.5 8.79086 2.5 11V18C2.5 20.2091 4.29086 22 6.5 22H16.5C18.7091 22 20.5 20.2091 20.5 18V11C20.5 8.79086 18.7091 7 16.5 7H15.5V9H16.5C17.6046 9 18.5 9.89543 18.5 11V18C18.5 19.1046 17.6046 20 16.5 20H6.5C5.39543 20 4.5 19.1046 4.5 18V11C4.5 9.89543 5.39543 9 6.5 9H7.5V7H6.5Z" fill="#FFFDDE"/>
</svg>
