<svg width="168" height="168" viewBox="0 0 168 168" fill="none" xmlns="http://www.w3.org/2000/svg">
<rect x="1" y="5" width="165" height="39" rx="8" fill="#FFFDDE"/>
<path d="M23.5912 21.64V18.994H15.3652V21.64H17.9212V31H21.0352V21.64H23.5912ZM33.211 31H36.541L32.023 18.994H28.621L24.013 31H27.307L28.117 28.984H32.473L33.211 31ZM28.981 26.608L30.295 22.72L31.645 26.608H28.981ZM43.7223 27.022C44.6583 27.022 45.7743 26.896 46.7103 25.978C47.6463 25.06 47.7723 23.944 47.7723 22.99C47.7723 21.982 47.5923 20.974 46.6563 20.074C45.7383 19.192 44.6583 18.994 43.6143 18.994H38.6463V31H41.7603V27.022H43.7223ZM41.7603 21.514H42.8223C43.2183 21.514 43.7943 21.568 44.1543 21.946C44.4783 22.27 44.5143 22.702 44.5143 23.026C44.5143 23.314 44.4963 23.8 44.1183 24.124C43.7403 24.466 43.1283 24.502 42.8043 24.502H41.7603V21.514ZM63.1268 31H66.4568L61.9388 18.994H58.5368L53.9288 31H57.2228L58.0328 28.984H62.3888L63.1268 31ZM58.8968 26.608L60.2108 22.72L61.5608 26.608H58.8968ZM71.6761 31V23.656L77.4181 31H80.5321V18.994H77.4181V26.338L71.6761 18.994H68.5621V31H71.6761ZM88.1225 31C90.1745 31 91.7765 30.136 92.7305 29.182C93.9005 28.012 94.2965 26.608 94.2965 25.024C94.2965 23.728 94.0265 22 92.6225 20.65C91.0745 19.156 89.0585 18.994 87.8525 18.994H83.7665V31H88.1225ZM86.8805 21.64H87.6365C88.4105 21.64 89.3825 21.712 90.1205 22.396C90.7145 22.954 91.0565 23.908 91.0565 25.024C91.0565 26.356 90.5345 27.112 90.1385 27.49C89.3285 28.282 88.2665 28.354 87.5105 28.354H86.8805V21.64ZM105.037 18.994H101.923V31H105.037V26.14H109.537V31H112.669V18.994H109.537V23.476H105.037V18.994ZM128.623 25.006C128.623 23.404 128.011 21.712 126.733 20.506C125.509 19.336 123.781 18.724 121.999 18.724C120.217 18.724 118.489 19.336 117.265 20.506C115.987 21.712 115.375 23.404 115.375 25.006C115.375 26.59 115.987 28.264 117.265 29.488C118.489 30.658 120.217 31.27 121.999 31.27C123.781 31.27 125.509 30.658 126.733 29.488C128.011 28.264 128.623 26.59 128.623 25.006ZM121.999 21.748C122.827 21.748 123.745 22.072 124.411 22.702C124.969 23.242 125.383 24.07 125.383 25.006C125.383 25.924 124.969 26.752 124.411 27.31C123.853 27.868 123.061 28.246 121.999 28.246C120.955 28.246 120.145 27.85 119.569 27.292C119.119 26.86 118.615 26.122 118.615 25.06C118.615 24.214 118.921 23.332 119.569 22.702C120.217 22.054 121.135 21.748 121.999 21.748ZM131.33 18.994V31H138.188V28.354H134.444V18.994H131.33ZM144.861 31C146.913 31 148.515 30.136 149.469 29.182C150.639 28.012 151.035 26.608 151.035 25.024C151.035 23.728 150.765 22 149.361 20.65C147.813 19.156 145.797 18.994 144.591 18.994H140.505V31H144.861ZM143.619 21.64H144.375C145.149 21.64 146.121 21.712 146.859 22.396C147.453 22.954 147.795 23.908 147.795 25.024C147.795 26.356 147.273 27.112 146.877 27.49C146.067 28.282 145.005 28.354 144.249 28.354H143.619V21.64Z" fill="#191E45"/>
<path d="M86.7364 54.5443C85.1391 56.7433 81.8609 56.7433 80.2636 54.5443L71.2253 42.1007C69.3048 39.4566 71.1937 35.75 74.4617 35.75L92.5383 35.75C95.8063 35.75 97.6952 39.4566 95.7747 42.1007L86.7364 54.5443Z" fill="#FFFDDE"/>
</svg>
