<svg width="25" height="25" viewBox="0 0 25 25" fill="none" xmlns="http://www.w3.org/2000/svg">
<path d="M20.0899 6.80194C19.0931 6.58273 18.1913 6.05337 17.514 5.28983C16.8367 4.52629 16.4186 3.56781 16.3199 2.55194V2.11194H12.8699V15.7819C12.8706 16.3885 12.6804 16.9799 12.3263 17.4724C11.9722 17.9649 11.4722 18.3334 10.897 18.5259C10.3218 18.7184 9.70056 18.725 9.12138 18.5448C8.5422 18.3646 8.0344 18.0068 7.6699 17.5219C7.34335 17.0928 7.14339 16.5808 7.09263 16.0439C7.04187 15.5071 7.14234 14.9667 7.38268 14.4839C7.62302 14.0012 7.99363 13.5953 8.45261 13.3122C8.9116 13.0291 9.44063 12.8801 9.9799 12.8819C10.2781 12.8802 10.5749 12.9241 10.8599 13.0119V9.51194C10.5282 9.47086 10.194 9.45415 9.8599 9.46194C8.62921 9.49482 7.43482 9.88587 6.42299 10.5872C5.41115 11.2885 4.62579 12.2697 4.16308 13.4106C3.70036 14.5514 3.58038 15.8025 3.81782 17.0105C4.05526 18.2185 4.63981 19.3311 5.4999 20.2119C6.38139 21.1081 7.50939 21.7221 8.74059 21.9757C9.9718 22.2294 11.2506 22.1113 12.4146 21.6365C13.5785 21.1617 14.575 20.3516 15.2775 19.3092C15.98 18.2667 16.3568 17.039 16.3599 15.7819V8.78194C17.7514 9.77589 19.4199 10.3076 21.1299 10.3019V6.90194C20.794 6.90332 20.4589 6.86981 20.1299 6.80194H20.0899Z" fill="#AC2D45"/>
</svg>
