<svg width="25" height="24" viewBox="0 0 25 24" xmlns="http://www.w3.org/2000/svg">
<path d="M20.0899 6.69C19.0931 6.47079 18.1913 5.94144 17.514 5.17789C16.8367 4.41435 16.4186 3.45587 16.3199 2.44V2H12.8699V15.67C12.8706 16.2766 12.6804 16.868 12.3263 17.3604C11.9722 17.8529 11.4722 18.2215 10.897 18.414C10.3218 18.6065 9.70056 18.6131 9.12138 18.4329C8.5422 18.2527 8.0344 17.8948 7.6699 17.41C7.34335 16.9808 7.14339 16.4689 7.09263 15.932C7.04187 15.3951 7.14234 14.8548 7.38268 14.372C7.62302 13.8892 7.99363 13.4834 8.45261 13.2003C8.9116 12.9172 9.44063 12.7681 9.9799 12.77C10.2781 12.7683 10.5749 12.8121 10.8599 12.9V9.4C10.5282 9.35893 10.194 9.34221 9.8599 9.35C8.62921 9.38288 7.43482 9.77393 6.42299 10.4753C5.41115 11.1766 4.62579 12.1578 4.16308 13.2986C3.70036 14.4395 3.58038 15.6905 3.81782 16.8986C4.05526 18.1066 4.63981 19.2191 5.4999 20.1C6.38139 20.9962 7.50939 21.6101 8.74059 21.8638C9.9718 22.1175 11.2506 21.9994 12.4146 21.5246C13.5785 21.0498 14.575 20.2397 15.2775 19.1973C15.98 18.1548 16.3568 16.9271 16.3599 15.67V8.67C17.7514 9.66395 19.4199 10.1956 21.1299 10.19V6.79C20.794 6.79139 20.4589 6.75787 20.1299 6.69H20.0899Z" fill="#FFFDDE" />
</svg>
