<svg width="85" height="85" viewBox="0 0 85 85" fill="none" xmlns="http://www.w3.org/2000/svg">
<path d="M34.8559 68.1154L35.5 67.3505L34.8559 68.1154ZM17.7792 53.735L18.4233 52.9701L17.7792 53.735ZM17.7792 31.2648L17.135 30.4999L17.7792 31.2648ZM18.4233 32.0298L35.5 17.6494L34.2117 16.1196L17.135 30.4999L18.4233 32.0298ZM2.5 32.4999H17.135V30.4999H2.5V32.4999ZM2.5 52.4999V32.4999H0.5V52.4999H2.5ZM17.135 52.4999H2.5V54.4999H17.135V52.4999ZM35.5 67.3505L18.4233 52.9701L17.135 54.4999L34.2117 68.8803L35.5 67.3505ZM35.5 17.6494V67.3505H37.5V17.6494H35.5ZM34.2117 68.8803C35.5125 69.9757 37.5 69.051 37.5 67.3505H35.5V67.3505L34.2117 68.8803ZM17.135 54.4999H17.135L18.4233 52.9701C18.0627 52.6665 17.6064 52.4999 17.135 52.4999V54.4999ZM0.5 52.4999C0.5 53.6045 1.39543 54.4999 2.5 54.4999V52.4999H0.5ZM2.5 30.4999C1.39543 30.4999 0.5 31.3954 0.5 32.4999H2.5V30.4999ZM35.5 17.6494V17.6494H37.5C37.5 15.9489 35.5125 15.0242 34.2117 16.1196L35.5 17.6494ZM17.135 30.4999V32.4999C17.6064 32.4999 18.0627 32.3334 18.4233 32.0298L17.135 30.4999Z" fill="#191E45"/>
<path fill-rule="evenodd" clip-rule="evenodd" d="M61.2273 67.746C67.0106 60.9428 70.5001 52.1289 70.5001 42.5001C70.5001 32.8713 67.0106 24.0574 61.2273 17.2542L59.4648 18.2717C65.0937 24.763 68.5001 33.2338 68.5001 42.5001C68.5001 51.7665 65.0937 60.2372 59.4648 66.7285L61.2273 67.746ZM70.8768 73.3172C77.5322 64.8251 81.5001 54.126 81.5001 42.5001C81.5001 30.8742 77.5322 20.1751 70.8768 11.683L72.6256 10.6733C79.4425 19.469 83.5001 30.5107 83.5001 42.5001C83.5001 54.4895 79.4425 65.5312 72.6256 74.3269L70.8768 73.3172ZM48.7847 60.5623C53.5392 56.0112 56.5001 49.6014 56.5001 42.5001C56.5001 35.3988 53.5392 28.989 48.7847 24.4379L46.9739 25.4834C51.5977 29.6904 54.5001 35.7563 54.5001 42.5001C54.5001 49.2439 51.5977 55.3098 46.9739 59.5168L48.7847 60.5623Z" fill="#FFFDDE"/>
</svg>
